<mxfile host="app.diagrams.net" agent="Mozilla/5.0 (Windows NT 10.0; Win64; x64) AppleWebKit/537.36 (KHTML, like Gecko) Chrome/133.0.0.0 Safari/537.36 Edg/133.0.0.0" version="26.0.16">
  <diagram name="Page-1" id="V4Hu9adBDpVZ7FZJVedQ">
    <mxGraphModel dx="1426" dy="747" grid="1" gridSize="10" guides="1" tooltips="1" connect="1" arrows="1" fold="1" page="1" pageScale="1" pageWidth="850" pageHeight="1100" math="0" shadow="0">
      <root>
        <mxCell id="0" />
        <mxCell id="1" parent="0" />
        <mxCell id="TbZNpsVqEDIuRLEu4TGZ-1" value="" style="ellipse;shape=cloud;whiteSpace=wrap;html=1;" vertex="1" parent="1">
          <mxGeometry x="100" y="180" width="370" height="270" as="geometry" />
        </mxCell>
        <mxCell id="TbZNpsVqEDIuRLEu4TGZ-2" value="Vercel" style="text;html=1;align=center;verticalAlign=middle;whiteSpace=wrap;rounded=0;" vertex="1" parent="1">
          <mxGeometry x="230" y="220" width="60" height="30" as="geometry" />
        </mxCell>
        <mxCell id="TbZNpsVqEDIuRLEu4TGZ-3" value="&lt;b&gt;&lt;font style=&quot;font-size: 18px;&quot;&gt;Busybee - System Architecture&lt;/font&gt;&lt;/b&gt;" style="text;html=1;align=center;verticalAlign=middle;whiteSpace=wrap;rounded=0;" vertex="1" parent="1">
          <mxGeometry x="270" y="110" width="350" height="30" as="geometry" />
        </mxCell>
        <mxCell id="TbZNpsVqEDIuRLEu4TGZ-4" value="Busybee&lt;div&gt;React App&lt;/div&gt;" style="rounded=0;whiteSpace=wrap;html=1;" vertex="1" parent="1">
          <mxGeometry x="220" y="285" width="120" height="60" as="geometry" />
        </mxCell>
        <mxCell id="TbZNpsVqEDIuRLEu4TGZ-5" value="" style="ellipse;shape=cloud;whiteSpace=wrap;html=1;" vertex="1" parent="1">
          <mxGeometry x="510" y="190" width="330" height="250" as="geometry" />
        </mxCell>
        <mxCell id="TbZNpsVqEDIuRLEu4TGZ-6" value="PostgreSQL" style="shape=datastore;whiteSpace=wrap;html=1;" vertex="1" parent="1">
          <mxGeometry x="580" y="277.5" width="90" height="75" as="geometry" />
        </mxCell>
        <mxCell id="TbZNpsVqEDIuRLEu4TGZ-7" value="Supabase" style="text;html=1;align=center;verticalAlign=middle;whiteSpace=wrap;rounded=0;" vertex="1" parent="1">
          <mxGeometry x="620" y="220" width="60" height="30" as="geometry" />
        </mxCell>
        <mxCell id="TbZNpsVqEDIuRLEu4TGZ-8" value="Auth" style="sketch=0;pointerEvents=1;shadow=0;dashed=0;html=1;strokeColor=none;labelPosition=center;verticalLabelPosition=bottom;verticalAlign=top;outlineConnect=0;align=center;shape=mxgraph.office.security.lock_protected;fillColor=#CCCBCB;" vertex="1" parent="1">
          <mxGeometry x="720" y="277.5" width="48" height="59.5" as="geometry" />
        </mxCell>
        <mxCell id="TbZNpsVqEDIuRLEu4TGZ-11" value="" style="endArrow=classic;startArrow=classic;html=1;rounded=0;exitX=1;exitY=0.5;exitDx=0;exitDy=0;entryX=0.094;entryY=0.508;entryDx=0;entryDy=0;entryPerimeter=0;" edge="1" parent="1" source="TbZNpsVqEDIuRLEu4TGZ-4" target="TbZNpsVqEDIuRLEu4TGZ-5">
          <mxGeometry width="50" height="50" relative="1" as="geometry">
            <mxPoint x="400" y="410" as="sourcePoint" />
            <mxPoint x="450" y="360" as="targetPoint" />
          </mxGeometry>
        </mxCell>
        <mxCell id="TbZNpsVqEDIuRLEu4TGZ-12" value="Supabase client&lt;div&gt;package&lt;/div&gt;" style="edgeLabel;html=1;align=center;verticalAlign=middle;resizable=0;points=[];" vertex="1" connectable="0" parent="TbZNpsVqEDIuRLEu4TGZ-11">
          <mxGeometry x="-0.0051" relative="1" as="geometry">
            <mxPoint as="offset" />
          </mxGeometry>
        </mxCell>
      </root>
    </mxGraphModel>
  </diagram>
</mxfile>
